<?xml version="1.0" encoding="UTF-8"?>
<svg width="64px" height="64px" viewBox="0 0 64 64" version="1.1" xmlns="http://www.w3.org/2000/svg">
    <!-- Derived from Wickworks' Lancer Tactics modkit icons (assets/icons/actions/systems/ms_pattern_b_hex_charges/action_frag_grenade.svg, assets/icons/overcharge.svg), reused with permission. Generated by lancer-tactics-claude tools/gen_ccc_icons.py. -->
<metadata>
<rdf:RDF xmlns:rdf="http://www.w3.org/1999/02/22-rdf-syntax-ns#" xmlns:dc="http://purl.org/dc/elements/1.1/">
<rdf:Description>
<dc:rights>(c) Wickworks 2026 v1.4.4</dc:rights>
<dc:creator>Wickworks</dc:creator>
</rdf:Description>
</rdf:RDF>
</metadata>
    <title>action_shock_grenade</title>
    <g stroke="none" fill="none">
        <path d="M52.52,0.88 L52.44,0.9 L52.38,0.92 L52.31,0.95 L52.24,0.98 L52.18,1.02 L52.12,1.07 L52.06,1.12 L52.01,1.17 L51.97,1.23 L46.1,9.42 L46.21,9.64 L46.32,9.96 L46.41,10.3 L46.46,10.65 L46.48,10.94 L46.48,12.19 L47.33,13.43 L51.24,15.25 L49.7,16.89 L51.79,19.95 L61.67,16.04 L61.71,16.02 L61.74,16 L61.78,15.98 L61.81,15.96 L61.85,15.94 L61.88,15.92 L61.91,15.89 L61.94,15.86 L61.97,15.83 L62,15.8 L62.02,15.77 L62.05,15.74 L62.07,15.71 L62.09,15.67 L62.11,15.64 L62.13,15.6 L62.16,15.52 L62.19,15.44 L62.2,15.35 L62.21,15.27 L62.21,15.19 L62.2,15.11 L62.18,15.02 L62.16,14.95 L62.13,14.87 L62.09,14.8 L62.04,14.73 L61.99,14.66 L61.93,14.61 L61.86,14.55 L61.79,14.5 L61.71,14.46 L55.75,11.68 L60.94,5.86 L60.95,5.85 L60.96,5.84 L60.97,5.82 L60.98,5.81 L60.98,5.8 L60.99,5.79 L61,5.77 L61.01,5.76 L61.02,5.75 L61.03,5.73 L61.04,5.72 L61.04,5.71 L61.05,5.69 L61.06,5.68 L61.07,5.67 L61.07,5.65 L61.11,5.57 L61.13,5.49 L61.15,5.4 L61.15,5.32 L61.15,5.24 L61.14,5.15 L61.13,5.07 L61.1,5 L61.07,4.92 L61.03,4.85 L60.98,4.78 L60.93,4.71 L60.87,4.65 L60.81,4.6 L60.74,4.55 L60.66,4.51 L53.02,0.95 L52.95,0.92 L52.88,0.9 L52.81,0.88 L52.74,0.88 L52.66,0.87 L52.59,0.88 Z M2.29,3.5 L2.26,3.57 L2.23,3.63 L2.21,3.7 L2.19,3.77 L2.18,3.85 L2.18,3.92 L2.18,4 L2.19,4.07 L2.2,4.15 L5.23,15.97 L5.24,15.98 L5.24,15.99 L5.24,16 L5.25,16.01 L5.25,16.02 L5.25,16.03 L5.25,16.04 L5.26,16.05 L5.26,16.06 L5.26,16.07 L5.27,16.08 L5.27,16.09 L5.28,16.09 L5.28,16.1 L5.28,16.11 L5.29,16.12 L5.33,16.2 L5.38,16.27 L5.43,16.34 L5.49,16.4 L5.55,16.45 L5.62,16.49 L5.7,16.53 L5.77,16.56 L5.85,16.59 L5.93,16.61 L6.01,16.61 L6.1,16.62 L6.18,16.61 L6.26,16.59 L6.35,16.57 L6.43,16.54 L12.38,13.76 L12.38,10.94 L12.39,10.65 L12.45,10.3 L12.53,9.96 L12.65,9.64 L12.8,9.33 L12.97,9.04 L13.18,8.77 L13.4,8.52 L13.65,8.3 L13.92,8.1 L14.21,7.92 L14.51,7.77 L14.84,7.65 L15.17,7.57 L15.52,7.51 L15.81,7.5 L19.36,7.5 L19.78,6.23 L19.79,6.19 L19.8,6.15 L19.81,6.11 L19.82,6.07 L19.82,6.03 L19.82,5.99 L19.82,5.95 L19.82,5.91 L19.82,5.87 L19.81,5.83 L19.81,5.79 L19.8,5.75 L19.79,5.71 L19.78,5.67 L19.76,5.63 L19.74,5.6 L19.7,5.52 L19.66,5.45 L19.6,5.38 L19.54,5.32 L19.48,5.27 L19.41,5.22 L19.34,5.19 L19.26,5.15 L19.18,5.13 L19.1,5.11 L19.02,5.1 L18.94,5.1 L18.85,5.11 L18.77,5.13 L18.69,5.15 L18.61,5.18 L12.64,7.96 L11.51,0.25 L11.51,0.23 L11.51,0.22 L11.51,0.2 L11.5,0.19 L11.5,0.17 L11.5,0.16 L11.49,0.14 L11.49,0.13 L11.48,0.11 L11.48,0.1 L11.47,0.08 L11.47,0.07 L11.46,0.05 L11.46,0.04 L11.45,0.03 L11.44,0.01 L11.44,0 L9.44,0 L2.67,3.16 L2.6,3.19 L2.54,3.23 L2.48,3.28 L2.43,3.33 L2.38,3.38 L2.33,3.44 Z M15.52,18.29 L15.17,18.24 L14.84,18.15 L14.51,18.03 L14.21,17.88 L13.92,17.71 L13.65,17.51 L13.4,17.28 L13.18,17.03 L12.97,16.77 L12.8,16.48 L13.72,24.48 L15.77,18.3 Z M10.52,40.88 L10.44,40.9 L10.38,40.92 L10.31,40.95 L10.24,40.98 L10.18,41.02 L10.12,41.07 L10.06,41.12 L10.01,41.17 L9.97,41.23 L2.85,51.16 L2.85,51.16 L2.84,51.17 L2.84,51.18 L2.83,51.19 L2.83,51.2 L2.82,51.2 L2.82,51.21 L2.81,51.22 L2.81,51.23 L2.8,51.24 L2.8,51.25 L2.79,51.26 L2.79,51.27 L2.78,51.27 L2.78,51.28 L2.77,51.29 L2.74,51.37 L2.72,51.46 L2.7,51.54 L2.69,51.62 L2.7,51.71 L2.71,51.79 L2.72,51.87 L2.75,51.95 L2.78,52.02 L2.82,52.1 L2.86,52.16 L2.92,52.23 L2.97,52.29 L3.04,52.34 L3.11,52.39 L3.19,52.43 L9.24,55.25 L1.79,63.13 L19.67,56.04 L19.71,56.02 L19.74,56 L19.78,55.98 L19.81,55.96 L19.85,55.94 L19.88,55.92 L19.91,55.89 L19.92,55.89 L18.75,54.88 L17.55,53.71 L17.12,53.25 L13.75,51.68 L14.85,50.45 L14.48,49.93 L13.64,48.58 L12.91,47.18 L12.26,45.74 L11.72,44.25 L11.28,42.73 L10.94,41.17 L10.9,40.91 L10.88,40.9 L10.81,40.88 L10.74,40.88 L10.66,40.87 L10.59,40.88 Z M47.24,55.99 L47.24,56 L47.25,56.01 L47.25,56.02 L47.25,56.03 L47.25,56.04 L47.26,56.05 L47.26,56.06 L47.26,56.07 L47.27,56.08 L47.27,56.09 L47.28,56.09 L47.28,56.1 L47.28,56.11 L47.29,56.12 L47.33,56.2 L47.38,56.27 L47.43,56.34 L47.49,56.4 L47.55,56.45 L47.62,56.49 L47.7,56.53 L47.77,56.56 L47.85,56.59 L47.93,56.61 L48.01,56.61 L48.1,56.62 L48.18,56.61 L48.26,56.59 L48.35,56.57 L48.43,56.54 L54.48,53.71 L55.67,64 L55.88,64 L61.78,46.23 L61.79,46.19 L61.8,46.15 L61.81,46.11 L61.82,46.07 L61.82,46.03 L61.82,45.99 L61.82,45.95 L61.82,45.91 L61.82,45.87 L61.81,45.83 L61.81,45.79 L61.8,45.75 L61.79,45.71 L61.78,45.67 L61.76,45.63 L61.74,45.6 L61.7,45.52 L61.66,45.45 L61.6,45.38 L61.54,45.32 L61.48,45.27 L61.41,45.22 L61.34,45.19 L61.26,45.15 L61.18,45.13 L61.1,45.11 L61.02,45.1 L60.94,45.1 L60.85,45.11 L60.77,45.13 L60.69,45.15 L60.61,45.18 L54.64,47.96 L53.6,40.86 L53.54,40.95 L53.37,41.19 L53.17,41.41 L52.95,41.61 L52.72,41.8 L52.47,41.97 L52.2,42.11 L51.92,42.23 L51.63,42.33 L51.35,42.4 L50.95,42.47 L50.71,42.5 L50.49,42.52 L50.27,42.53 L50.05,42.54 L49.82,42.54 L49.6,42.53 L49.38,42.52 L49.15,42.5 L48.93,42.46 L48.71,42.43 L48.49,42.38 L48.27,42.32 L48.05,42.26 L47.84,42.19 L47.63,42.11 L47.42,42.02 L47.26,41.95 L44.67,43.16 L44.63,43.18 L44.32,44.25 L44.27,44.39 L47.23,55.97 L47.24,55.98 Z" fill="#FFFFFF" fill-rule="evenodd" fill-opacity="0.5"></path>
        <path d="M35.5306122,25.0204082 C40.537415,29.3724132 43.0408163,33.1275152 43.0408163,36.2857143 C43.0408163,44.4507161 39.2857143,51.0221447 31.7755102,56 L24.2653061,56 C16.755102,51.0242935 13,44.4528649 13,36.2857143 C13,33.1253664 15.5034014,29.3702643 20.5102041,25.0204082 L35.5306122,25.0204082 Z M42.9795918,10 C43.5318766,10 43.9795918,10.4477153 43.9795918,11 L43.979551,12.96 L51.4859948,23.9312291 C51.5770358,24.064289 51.6342146,24.2168711 51.6534444,24.3757653 L51.6606876,24.495913 L51.6606843,38.9641799 C51.6619038,39.4436206 51.3226754,39.8564632 50.8520981,39.9482334 L50.5850704,39.9933182 C49.7917683,40.1053639 49.0705707,40.019177 48.4214775,39.7347576 C47.5720267,39.3625456 46.9584,38.7908637 46.5795648,38.0202167 C46.5128492,37.8837512 46.4780991,37.7338804 46.4779519,37.5819799 L46.4779515,24.5151812 C46.4779515,24.3017092 46.4096387,24.0938391 46.2830073,23.9219822 L38.791551,13.755 L35.530551,13.755 L35.5306122,16.5714286 L20.5102041,16.5714286 L20.509551,13.755 L19.5714286,13.755102 L16.3920468,15.6627311 C16.2366314,15.7559804 16.058795,15.8052382 15.877551,15.8052382 C15.3252663,15.8052382 14.877551,15.3575229 14.877551,14.8052382 L14.877551,11 C14.877551,10.4477153 15.3252663,10 15.877551,10 L42.9795918,10 Z M33.6530612,18.4489796 L33.6530612,23.1428571 L22.3877551,23.1428571 L22.3877551,18.4489796 L33.6530612,18.4489796 Z" id="Combined-Shape" fill="#FFFFFF" fill-rule="nonzero" opacity="0.99"></path>
    </g>
</svg>
