<?xml version="1.0" encoding="UTF-8"?>
<svg width="64px" height="64px" viewBox="0 0 64 64" version="1.1" xmlns="http://www.w3.org/2000/svg">
    <!-- Derived from Wickworks' Lancer Tactics modkit icons (assets/icons/actions/weapons/mw_daisy_cutter.svg), reused with permission. Generated by lancer-tactics-claude tools/gen_ccc_weapon_icons.py. -->
<metadata>
<rdf:RDF xmlns:rdf="http://www.w3.org/1999/02/22-rdf-syntax-ns#" xmlns:dc="http://purl.org/dc/elements/1.1/">
<rdf:Description>
<dc:rights>(c) Wickworks 2026 v1.4.4</dc:rights>
<dc:creator>Wickworks</dc:creator>
</rdf:Description>
</rdf:RDF>
</metadata>
    <title>mw_fraglauncher</title>
    <g stroke="none" fill="none">
        <path d="M25.93,34.16 L26.07,34.18 L26.2,34.21 L26.32,34.26 L26.45,34.31 L26.57,34.39 L26.68,34.47 L26.79,34.56 L27.77,35.55 L47.19,16.14 L44.84,15.46 L44.84,13.14 L51.44,11.23 L48.16,5.29 L10.99,42.46 L13.95,45.43 L24.81,34.56 L24.92,34.47 L25.03,34.39 L25.15,34.31 L25.27,34.26 L25.4,34.21 L25.53,34.18 L25.66,34.16 L25.8,34.15 Z M54.33,0.89 L54.22,0.81 L54.1,0.74 L53.98,0.68 L53.85,0.64 L53.72,0.6 L53.58,0.58 L53.45,0.58 L53.32,0.58 L53.18,0.6 L53.05,0.64 L52.92,0.68 L52.8,0.74 L52.68,0.81 L52.57,0.89 L52.46,0.99 L51.47,1.98 L49.5,0 L47.52,1.98 L49.44,3.89 L49.76,3.58 L55.77,6.9 L56.8,3.35 L54.44,0.99 Z M52.73,31.98 L52.86,31.95 L52.99,31.91 L53.11,31.85 L53.23,31.78 L53.34,31.7 L53.45,31.6 L57.47,27.58 L55.77,21.69 L49.76,25.02 L48.12,23.38 L51.44,17.36 L48.72,16.58 L28.76,36.54 L36.66,44.44 L50.49,30.61 L51.47,31.6 L51.58,31.7 L51.69,31.78 L51.81,31.85 L51.94,31.91 L52.06,31.95 L52.2,31.98 L52.33,32 L52.46,32.01 L52.6,32 Z M61.45,23.59 L61.53,23.48 L61.6,23.36 L61.66,23.24 L61.7,23.11 L61.73,22.98 L61.75,22.85 L61.76,22.71 L61.75,22.58 L61.73,22.45 L61.71,22.35 L61.31,23.74 L61.35,23.7 Z M37.07,47.4 L37.06,47.27 L37.05,47.14 L37.01,47 L36.97,46.88 L36.91,46.75 L36.84,46.63 L36.76,46.52 L36.66,46.41 L25.8,35.55 L25.87,35.63 L25.91,35.7 L25.92,35.76 L25.91,35.82 L25.88,35.87 L25.82,35.91 L25.76,35.96 L25.68,36.01 L25.58,36.05 L25.48,36.1 L25.37,36.16 L25.26,36.22 L25.14,36.28 L25.03,36.36 L24.92,36.44 L24.81,36.54 L14.94,46.41 L26.79,58.27 L36.66,48.39 L36.76,48.28 L36.84,48.17 L36.91,48.05 L36.97,47.93 L37.01,47.8 L37.05,47.67 L37.06,47.54 Z M25.12,59.78 L25.16,59.65 L25.19,59.52 L25.21,59.39 L25.22,59.25 L25.21,59.12 L25.19,58.99 L25.16,58.86 L25.12,58.73 L25.06,58.6 L24.99,58.48 L24.91,58.37 L24.81,58.27 L10,43.45 L6.05,47.4 L4.07,45.43 L0,49.5 L0,64 L21.05,64 L24.81,60.24 L24.91,60.13 L24.99,60.02 L25.06,59.9 Z" fill="#FFFFFF" fill-rule="evenodd"></path>
        <path d="M62.53,15.83 L64,15.4 L64,13.19 L62.53,12.77 L64,10.11 L64,8.6 L60.37,10.6 L58.84,5.3 L57.31,10.6 L52.47,7.93 L55.14,12.77 L49.84,14.3 L55.14,15.83 L52.47,20.66 L57.31,17.99 L58.84,23.3 L60.37,17.99 L64,20 L64,18.49 Z" fill="#FFFFFF" fill-rule="evenodd"></path>
    </g>
</svg>
